<?xml version="1.0" encoding="utf-8"?>
<!-- Generator: Adobe Illustrator 23.0.1, SVG Export Plug-In . SVG Version: 6.00 Build 0)  -->
<svg version="1.1" id="Layer_1" xmlns="http://www.w3.org/2000/svg" xmlns:xlink="http://www.w3.org/1999/xlink" x="0px" y="0px"
	 viewBox="0 0 20 20" style="enable-background:new 0 0 20 20;" xml:space="preserve">
<style type="text/css">
	.st0{fill:#E1E1E1;}
</style>
<path class="st0" d="M16.9,13.3L16,11.6V8.3c0-3.3-2.7-6-6-6S4,5,4,8.3v3.3l-0.9,1.7c-0.2,0.4-0.2,0.9,0.1,1.3
	c0.3,0.5,0.7,0.7,1.2,0.7h3.1c0,1.4,1.1,2.5,2.5,2.5s2.5-1.1,2.5-2.5h3.1c0.5,0,0.9-0.2,1.2-0.7C17,14.1,17.1,13.6,16.9,13.3z
	 M10,16.8c-0.8,0-1.5-0.7-1.5-1.5h3C11.5,16,10.8,16.8,10,16.8z M15.9,14.1c0,0.1-0.1,0.2-0.3,0.2h-3.1h-5H4.4
	c-0.2,0-0.3-0.1-0.3-0.2c0-0.1-0.1-0.2,0-0.4L5,11.9c0,0,0-0.1,0-0.2V8.3c0-2.8,2.2-5,5-5s5,2.2,5,5v3.4c0,0.1,0,0.2,0.1,0.2
	l0.9,1.8l0,0C16,13.9,16,14.1,15.9,14.1z"/>
</svg>
