<?xml version="1.0" encoding="utf-8"?>
<!-- Generator: Adobe Illustrator 23.0.1, SVG Export Plug-In . SVG Version: 6.00 Build 0)  -->
<svg version="1.1" id="Layer_1" xmlns="http://www.w3.org/2000/svg" xmlns:xlink="http://www.w3.org/1999/xlink" x="0px" y="0px"
	 viewBox="0 0 20 20" style="enable-background:new 0 0 20 20;" xml:space="preserve">
<style type="text/css">
	.st0{fill:#E1E1E1;}
</style>
<path class="st0" d="M16.5,17.5h-7C8.7,17.5,8,16.8,8,16v-4c0-0.8,0.7-1.5,1.5-1.5h7c0.8,0,1.5,0.7,1.5,1.5v4
	C18,16.8,17.3,17.5,16.5,17.5z M9.5,11.5C9.2,11.5,9,11.7,9,12v4c0,0.3,0.2,0.5,0.5,0.5h7c0.3,0,0.5-0.2,0.5-0.5v-4
	c0-0.3-0.2-0.5-0.5-0.5H9.5z"/>
<path class="st0" d="M5.5,17.5h-2C2.7,17.5,2,16.8,2,16v-4c0-0.8,0.7-1.5,1.5-1.5h2C6.3,10.5,7,11.2,7,12v4
	C7,16.8,6.3,17.5,5.5,17.5z M3.5,11.5C3.2,11.5,3,11.7,3,12v4c0,0.3,0.2,0.5,0.5,0.5h2C5.8,16.5,6,16.3,6,16v-4
	c0-0.3-0.2-0.5-0.5-0.5H3.5z"/>
<path class="st0" d="M16.5,9.5h-2C13.7,9.5,13,8.8,13,8V4c0-0.8,0.7-1.5,1.5-1.5h2C17.3,2.5,18,3.2,18,4v4C18,8.8,17.3,9.5,16.5,9.5
	z M14.5,3.5C14.2,3.5,14,3.7,14,4v4c0,0.3,0.2,0.5,0.5,0.5h2C16.8,8.5,17,8.3,17,8V4c0-0.3-0.2-0.5-0.5-0.5H14.5z"/>
<path class="st0" d="M10.5,9.5h-7C2.7,9.5,2,8.8,2,8V4c0-0.8,0.7-1.5,1.5-1.5h7C11.3,2.5,12,3.2,12,4v4C12,8.8,11.3,9.5,10.5,9.5z
	 M3.5,3.5C3.2,3.5,3,3.7,3,4v4c0,0.3,0.2,0.5,0.5,0.5h7C10.8,8.5,11,8.3,11,8V4c0-0.3-0.2-0.5-0.5-0.5H3.5z"/>
</svg>
