<?xml version="1.0" encoding="utf-8"?>
<!-- Generator: Adobe Illustrator 23.0.1, SVG Export Plug-In . SVG Version: 6.00 Build 0)  -->
<svg version="1.1" id="Layer_1" xmlns="http://www.w3.org/2000/svg" xmlns:xlink="http://www.w3.org/1999/xlink" x="0px" y="0px"
	 viewBox="0 0 20 20" style="enable-background:new 0 0 20 20;" xml:space="preserve">
<style type="text/css">
	.st0{fill:#E1E1E1;}
</style>
<path class="st0" d="M10,2C7,2,4.4,3.7,3,6.2V4.5C3,4.2,2.8,4,2.5,4S2,4.2,2,4.5v4C2,8.8,2.2,9,2.5,9h4C6.8,9,7,8.8,7,8.5
	S6.8,8,6.5,8H3.3C4.2,5.1,6.8,3,10,3c3.9,0,7,3.1,7,7s-3.1,7-7,7c-3.1,0-5.7-2-6.6-4.7l0,0l-0.2-0.9C3.1,11.1,2.8,11,2.5,11
	s-0.4,0.3-0.4,0.6l0.2,0.9l0,0l0,0v0.1c0,0,0,0.1,0.1,0.1c1.1,3.1,4,5.3,7.5,5.3c4.4,0,8-3.6,8-8S14.4,2,10,2z"/>
<path class="st0" d="M12.5,12.3l-2-2V6c0-0.3-0.2-0.5-0.5-0.5S9.5,5.7,9.5,6v4.5c0,0.1,0,0.3,0.1,0.4l2.1,2.1c0.2,0.2,0.5,0.2,0.7,0
	S12.7,12.5,12.5,12.3z"/>
</svg>
