<?xml version="1.0" encoding="utf-8"?>
<!-- Generator: Adobe Illustrator 23.0.1, SVG Export Plug-In . SVG Version: 6.00 Build 0)  -->
<svg version="1.1" id="Layer_1" xmlns="http://www.w3.org/2000/svg" xmlns:xlink="http://www.w3.org/1999/xlink" x="0px" y="0px"
	 viewBox="0 0 20 20" style="enable-background:new 0 0 20 20;" xml:space="preserve">
<style type="text/css">
	.st0{fill:#E1E1E1;}
</style>
<path class="st0" d="M16,3.5h-1V3c0-0.3-0.2-0.5-0.5-0.5S14,2.7,14,3v0.5H6V3c0-0.3-0.2-0.5-0.5-0.5S5,2.7,5,3v0.5H4
	c-1.1,0-2,0.9-2,2v1v1v8c0,1.1,0.9,2,2,2h12c1.1,0,2-0.9,2-2v-8v-1v-1C18,4.4,17.1,3.5,16,3.5z M17,15.5c0,0.6-0.4,1-1,1H4
	c-0.6,0-1-0.4-1-1v-8h14V15.5z M3,6.5v-1c0-0.6,0.4-1,1-1h1V5c0,0.3,0.2,0.5,0.5,0.5S6,5.3,6,5V4.5h8V5c0,0.3,0.2,0.5,0.5,0.5
	S15,5.3,15,5V4.5h1c0.6,0,1,0.4,1,1v1H3z"/>
<path class="st0" d="M8.5,8.8h2.9c0.3,0,0.5,0,0.6,0.1s0.2,0.2,0.2,0.4c0,0.1-0.1,0.3-0.2,0.5c-0.1,0.2-0.3,0.4-0.5,0.7
	c-0.2,0.2-0.4,0.5-0.6,0.9s-0.4,0.8-0.6,1.3c-0.1,0.2-0.1,0.4-0.1,0.6s-0.1,0.4-0.1,0.6s0,0.4-0.1,0.6c-0.1,0.3-0.1,0.5-0.3,0.6
	s-0.3,0.2-0.5,0.2s-0.3-0.1-0.4-0.2c-0.1-0.1-0.2-0.3-0.2-0.6c0-0.2,0-0.4,0.1-0.8c0.1-0.4,0.2-0.7,0.4-1.2s0.4-0.9,0.7-1.4
	s0.6-0.9,1-1.4H8.5c-0.2,0-0.4,0-0.6-0.1c-0.1,0-0.1-0.2-0.1-0.4C7.8,9,7.9,8.9,8,8.8C8.1,8.7,8.3,8.8,8.5,8.8z"/>
</svg>
